<svg xmlns="http://www.w3.org/2000/svg" width="270" height="270" viewBox="0 0 270 270"><g transform="translate(-0.112 -0.4)"><g transform="translate(0.112 0.4)"><rect width="270" height="270" rx="135" transform="translate(0 0)" fill="#f59e0b"/><path d="M614.424,714.049a99.844,99.844,0,1,1,99.815-102.215h-28.7a6.424,6.424,0,0,1-6.405-6.4h0a6.424,6.424,0,0,1,6.405-6.4h15.192a87.638,87.638,0,1,0-10.63,59.352q.092-.188.2-.371a6.11,6.11,0,0,1,10.583,6.109l.026.007a99.8,99.8,0,0,1-86.486,49.929ZM568.2,641.338a6.11,6.11,0,1,0-10.474,6.224A65.794,65.794,0,0,0,671.4,647.1l-.005,0a6.11,6.11,0,1,0-10.692-5.914,53.571,53.571,0,0,1-92.474.141l-.031.018Zm82.08-35.9,14.66,8.464a6.424,6.424,0,0,1,2.344,8.749h0a6.424,6.424,0,0,1-8.749,2.344l-24.265-14.009a6.424,6.424,0,0,1-2.344-8.749h0a6.339,6.339,0,0,1,1.849-2.023l.085-.06c.149-.1.3-.2.463-.295l24.265-14.009a6.424,6.424,0,0,1,8.749,2.344h0a6.424,6.424,0,0,1-2.344,8.749Zm-70.4-18.254A18.312,18.312,0,1,1,561.57,605.5,18.313,18.313,0,0,1,579.882,587.183Z" transform="translate(-480.444 -480.314)" stroke="#000" stroke-width="2" fill-rule="evenodd"/></g></g></svg>